<svg version="1.1" id="Layer_1" xmlns:x="ns_extend;" xmlns:i="ns_ai;" xmlns:graph="ns_graphs;" xmlns="http://www.w3.org/2000/svg" xmlns:xlink="http://www.w3.org/1999/xlink" x="0px" y="0px" viewBox="0 0 54 54" style="enable-background:new 0 0 54 54;" xml:space="preserve">
 <style type="text/css">
  .st0{fill:#00008F;}
	.st1{fill:#FF1721;}
	.st2{fill:#FFFFFF;}
 </style>
 <metadata>
  <sfw xmlns="ns_sfw;">
   <slices>
   </slices>
   <sliceSourceBounds bottomLeftOrigin="true" height="54" width="54" x="172.8" y="-227.2">
   </sliceSourceBounds>
  </sfw>
 </metadata>
 <g>
  <rect id="base" x="0" y="0" class="st0" width="54" height="54">
  </rect>
  <polygon id="switch" class="st1" points="33.5,26.7 54,0 51,0 30.4,26.7 	">
  </polygon>
  <path id="axa" class="st2" d="M41.3,38.6c0.9,2.6,2.9,9.5,3.7,10h-5.1c0-0.6-0.1-1.2-0.2-1.8c-0.2-0.8-2.1-6.7-2.1-6.7h-8.1
		l-1.3,1.8c0,0,1.5,4.8,1.6,5c0.2,0.4,0.9,1.7,0.9,1.7h-4.9c0,0-0.1-0.7-0.2-1c0-0.2-0.5-1.6-0.5-1.6s-1.1,1.2-1.4,1.8
		c-0.3,0.6-0.4,0.9-0.4,0.9h-3.8c0,0-0.1-0.7-0.2-1c0-0.2-0.5-1.7-0.5-1.7s-1.1,1.3-1.4,1.9c-0.3,0.6-0.4,0.9-0.4,0.9h-3.8
		c0,0,1.1-1,1.4-1.5c0.6-0.7,3-3.8,3-3.8l-0.9-3.3h-8c0,0-4.6,6-4.8,6.2c-0.2,0.2-1.5,2.1-1.5,2.3H0v-1.5c0,0,0.1-0.1,0.1-0.1
		c0.1-0.1,3.5-4.3,6.6-8.4c2.8-3.6,5.4-7.2,5.7-7.5c0.6-0.8,1.4-2.6,1.4-2.6h4.1c0,0,0.1,1.6,0.2,2c0.1,0.3,2.6,8.6,2.7,8.7l1.4-1.8
		l-2.4-7.4c0,0-0.6-1.4-0.7-1.6h4.8c0,0.4,0,0.9,0.2,1.3c0.2,0.6,1.2,4.4,1.2,4.4s3.3-4.1,3.5-4.4c0.2-0.4,0.4-0.8,0.4-1.2h4
		c0,0-0.7,0.5-2,2.2c-0.4,0.6-4.7,6-4.7,6s0.4,1.3,0.6,1.9c0,0.2,0.1,0.3,0.1,0.3c0,0,0.1-0.1,0.3-0.3c1.1-1.4,6.1-8,6.4-8.5
		c0.2-0.5,0.6-1,0.8-1.5h3.9c0,0,0.1,1.2,0.2,1.5L41.3,38.6z M35.3,32.4c-0.6,1.2-4,5.4-4,5.4h5.4c0,0-1-3.2-1.2-3.9
		C35.4,33.3,35.3,32.9,35.3,32.4C35.3,32.3,35.3,32.2,35.3,32.4z M14.5,32.4c-0.6,1.2-4,5.4-4,5.4H16c0,0-1-3.2-1.2-3.9
		C14.6,33.3,14.6,32.9,14.5,32.4C14.6,32.3,14.6,32.2,14.5,32.4z M22.7,44.9l1.5-2c-0.1-0.1-1-2.7-1-2.7l-1.4,1.9L22.7,44.9z">
  </path>
 </g>
</svg>