<svg width="178" height="42" viewBox="0 0 178 42" fill="none" xmlns="http://www.w3.org/2000/svg">
<path d="M49.1123 24.147L46.4749 20.3912C46.2299 20.4091 45.9692 20.4269 45.7064 20.4269H42.6858V24.1493H40.9395V11.9189H45.7064C48.8851 11.9189 50.8052 13.526 50.8052 16.183C50.8052 18.0709 49.8273 19.4328 48.1166 20.0435L51.0146 24.1493H49.1123V24.147ZM49.0611 16.1785C49.0611 14.431 47.8916 13.4346 45.6574 13.4346H42.6881V18.9379H45.6574C47.8894 18.9402 49.0611 17.926 49.0611 16.1785Z" fill="#094063"/>
<path d="M61.718 20.0748H54.209C54.4183 21.6997 55.7281 22.783 57.5614 22.783C58.644 22.783 59.5528 22.4152 60.2322 21.664L61.1567 22.7473C60.3191 23.7258 59.0449 24.2496 57.5079 24.2496C54.523 24.2496 52.5316 22.2748 52.5316 19.5153C52.5316 16.7715 54.5052 14.7988 57.176 14.7988C59.8469 14.7988 61.7514 16.7202 61.7514 19.5688C61.7536 19.7092 61.7358 19.9188 61.718 20.0748ZM54.2112 18.8711H60.1476C59.9738 17.3153 58.8021 16.2165 57.1783 16.2165C55.5722 16.2142 54.3849 17.2975 54.2112 18.8711Z" fill="#094063"/>
<path d="M64.0769 11.1833H65.7542V24.147H64.0769V11.1833Z" fill="#094063"/>
<path d="M68.65 12.0215C68.65 11.4108 69.1379 10.9204 69.7838 10.9204C70.4298 10.9204 70.9177 11.393 70.9177 11.9859C70.9177 12.6144 70.4454 13.1048 69.7838 13.1048C69.1401 13.1048 68.65 12.6323 68.65 12.0215ZM68.9485 14.8857H70.6259V24.1448H68.9485V14.8857Z" fill="#094063"/>
<path d="M81.1532 18.5546V24.1449H79.565V22.9212C79.0059 23.7593 77.9767 24.2496 76.5266 24.2496C74.4305 24.2496 73.1051 23.1307 73.1051 21.5236C73.1051 20.0391 74.0652 18.8154 76.8251 18.8154H79.4781V18.4833C79.4781 17.0679 78.6584 16.2477 76.9988 16.2477C75.8984 16.2477 74.7802 16.631 74.0652 17.244L73.3657 15.9869C74.3258 15.2179 75.7046 14.7988 77.1904 14.7988C79.7209 14.7988 81.1532 16.0225 81.1532 18.5546ZM79.4759 21.3163V20.0235H76.8919C75.2324 20.0235 74.7624 20.6699 74.7624 21.4567C74.7624 22.3818 75.5309 22.9591 76.805 22.9591C78.0614 22.9591 79.0571 22.3818 79.4759 21.3163Z" fill="#094063"/>
<path d="M93.0438 18.8176V24.147H91.3665V19.0115C91.3665 17.1949 90.4577 16.3033 88.8694 16.3033C87.0874 16.3033 85.9358 17.3688 85.9358 19.3793V24.1493H84.2584V14.8902H85.8645V16.2877C86.5461 15.3449 87.7334 14.8032 89.1991 14.8032C91.4534 14.7988 93.0438 16.0916 93.0438 18.8176Z" fill="#094063"/>
<path d="M95.3472 19.5175C95.3472 16.758 97.3898 14.801 100.237 14.801C101.896 14.801 103.275 15.4831 104.008 16.7759L102.734 17.5961C102.139 16.6867 101.232 16.2677 100.219 16.2677C98.4034 16.2677 97.0401 17.5426 97.0401 19.5175C97.0401 21.5258 98.4011 22.7852 100.219 22.7852C101.232 22.7852 102.139 22.3661 102.734 21.4567L104.008 22.2614C103.275 23.5542 101.896 24.2541 100.237 24.2541C97.3898 24.2518 95.3472 22.277 95.3472 19.5175Z" fill="#094063"/>
<path d="M114.361 20.0748H106.852C107.062 21.6997 108.372 22.783 110.205 22.783C111.287 22.783 112.196 22.4152 112.876 21.664L113.8 22.7473C112.963 23.7258 111.688 24.2496 110.151 24.2496C107.166 24.2496 105.175 22.2748 105.175 19.5153C105.175 16.7715 107.149 14.7988 109.819 14.7988C112.49 14.7988 114.395 16.7202 114.395 19.5688C114.397 19.7092 114.379 19.9188 114.361 20.0748ZM106.855 18.8711H112.791C112.617 17.3153 111.446 16.2165 109.822 16.2165C108.216 16.2142 107.028 17.2975 106.855 18.8711Z" fill="#094063"/>
<path d="M132.173 11.9167V24.1471H130.426V18.695H123.407V24.1471H121.661V11.9167H123.407V17.1749H130.426V11.9167H132.173Z" fill="#094063"/>
<path d="M143.923 20.0748H136.414C136.623 21.6997 137.933 22.783 139.766 22.783C140.849 22.783 141.758 22.4152 142.437 21.664L143.362 22.7473C142.524 23.7258 141.25 24.2496 139.713 24.2496C136.728 24.2496 134.737 22.2748 134.737 19.5153C134.737 16.7715 136.71 14.7988 139.381 14.7988C142.052 14.7988 143.956 16.7202 143.956 19.5688C143.959 19.7092 143.941 19.9188 143.923 20.0748ZM136.416 18.8711H142.353C142.179 17.3153 141.007 16.2165 139.383 16.2165C137.777 16.2142 136.59 17.2975 136.416 18.8711Z" fill="#094063"/>
<path d="M153.352 18.5546V24.1449H151.764V22.9212C151.205 23.7593 150.176 24.2496 148.726 24.2496C146.63 24.2496 145.304 23.1307 145.304 21.5236C145.304 20.0391 146.264 18.8154 149.024 18.8154H151.677V18.4833C151.677 17.0679 150.857 16.2477 149.198 16.2477C148.098 16.2477 146.979 16.631 146.264 17.244L145.565 15.9869C146.525 15.2179 147.904 14.7988 149.389 14.7988C151.92 14.7988 153.352 16.0225 153.352 18.5546ZM151.675 21.3163V20.0235H149.091C147.431 20.0235 146.961 20.6699 146.961 21.4567C146.961 22.3818 147.73 22.9591 149.004 22.9591C150.263 22.9591 151.256 22.3818 151.675 21.3163Z" fill="#094063"/>
<path d="M156.46 11.1833H158.137V24.147H156.46V11.1833Z" fill="#094063"/>
<path d="M166.762 23.6054C166.256 24.0423 165.488 24.2518 164.737 24.2518C162.868 24.2518 161.804 23.222 161.804 21.3519V16.2677H160.233V14.8879H161.804V12.8618H163.479V14.8879H166.134V16.2677H163.479V21.2828C163.479 22.2792 164.002 22.8387 164.929 22.8387C165.419 22.8387 165.889 22.6804 166.239 22.4018L166.762 23.6054Z" fill="#094063"/>
<path d="M177.57 18.8175V24.147H175.893V19.0114C175.893 17.1948 174.984 16.3032 173.396 16.3032C171.614 16.3032 170.462 17.3687 170.462 19.3792V24.1492H168.785V11.1855H170.462V16.2007C171.159 15.3091 172.313 14.8032 173.728 14.8032C175.98 14.7987 177.57 16.0915 177.57 18.8175Z" fill="#094063"/>
<path d="M14.522 9.33786C17.0588 9.33786 19.1153 7.2809 19.1153 4.74352C19.1153 2.20613 17.0588 0.14917 14.522 0.14917C11.9852 0.14917 9.92871 2.20613 9.92871 4.74352C9.92871 7.2809 11.9852 9.33786 14.522 9.33786Z" fill="#094063"/>
<path d="M34.8239 27.3261C36.7692 28.3658 37.5897 30.7266 36.708 32.7485C36.1771 33.83 35.2276 34.647 34.0795 35.01C33.0456 35.333 31.9253 35.2346 30.9629 34.737L20.2245 28.9181L21.9489 25.4537C23.1202 23.4122 22.4148 20.8092 20.3739 19.6376C20.328 19.6115 20.2817 19.5859 20.2351 19.5613C20.2205 19.553 20.2058 19.5447 20.191 19.5364L20.1469 19.5125L16.8475 17.5864L22.6069 6.9528C23.6567 4.93645 26.1431 4.15294 28.159 5.20382C30.1749 6.25377 30.9582 8.74078 29.9076 10.7571L24.0854 21.5073L34.8239 27.3261Z" fill="#094063"/>
<path d="M16.8097 27.0706C16.8132 27.0726 16.8166 27.0746 16.8201 27.0765L20.2217 28.9193L14.4042 39.6601C13.3545 41.6765 10.868 42.46 8.85214 41.4091C6.83625 40.3592 6.05292 37.8722 7.10355 35.8558L12.9851 24.997L2.23739 19.1736C0.292041 18.1338 -0.52842 15.7731 0.353299 13.7512C0.915743 12.6919 1.85872 11.8852 2.99196 11.4944C4.02496 11.1648 5.14799 11.2632 6.1086 11.7673L16.8451 17.5853L14.9462 21.098C13.8287 23.2202 14.6093 25.8465 16.7041 27.0134L16.8097 27.0706Z" fill="#094063"/>
</svg>
